# xmcd CD database file
#
# Track frame offsets:
#	150
#	14748
#	44598
#	56303
#	76488
#	88705
#	107716
#	129327
#	151385
#	178604
#	193209
#	213864
#	225980
#	251449
#	271908
#	287618
#	317960
#
# Disc length: 4723 seconds
#
# Revision: 0
# Processed by: cddbd v1.5.2PL0 Copyright (c) Steve Scherf et al.
# Submitted via: CDex 1.70beta2
#
DISCID=e8127111
DTITLE=Santo Rico Compilation - Mambo Rico #6
DYEAR=1900
DGENRE=Salsa
TTITLE0=Aprieta
TTITLE1=Chevere Que Chevere
TTITLE2=Callejero
TTITLE3=Isla Del Encanto
TTITLE4=La Comparsa
TTITLE5=Amarilla Se Pone
TTITLE6=El As De La Rumba
TTITLE7=Se Perdio El Amor
TTITLE8=Fania Latin Jazz Party
TTITLE9=Que Se Sepa
TTITLE10=Cuba Te Llama
TTITLE11=Caramelo A Kilo
TTITLE12=Ban Ban Quere
TTITLE13=Si Tu Vienes Baila
TTITLE14=Bemba Colora
TTITLE15=Mosaico Santero
TTITLE16=Bomba Carambomba
EXTD=
EXTT0=
EXTT1=
EXTT2=
EXTT3=
EXTT4=
EXTT5=
EXTT6=
EXTT7=
EXTT8=
EXTT9=
EXTT10=
EXTT11=
EXTT12=
EXTT13=
EXTT14=
EXTT15=
EXTT16=
PLAYORDER=
